<mxfile host="app.diagrams.net" agent="Mozilla/5.0 (Macintosh; Intel Mac OS X 10_15_7) AppleWebKit/537.36 (KHTML, like Gecko) Chrome/129.0.0.0 Safari/537.36" version="24.8.1">
  <diagram name="Страница — 1" id="KBMh_oixgHjGvTC0jcuy">
    <mxGraphModel grid="1" page="1" gridSize="10" guides="1" tooltips="1" connect="1" arrows="1" fold="1" pageScale="1" pageWidth="827" pageHeight="1169" math="0" shadow="0">
      <root>
        <mxCell id="0" />
        <mxCell id="1" parent="0" />
        <mxCell id="s5xSqlg0MC3EOBNhK-53-2" value="" style="edgeStyle=orthogonalEdgeStyle;rounded=0;orthogonalLoop=1;jettySize=auto;html=1;" edge="1" parent="1" source="s5xSqlg0MC3EOBNhK-53-3" target="s5xSqlg0MC3EOBNhK-53-5">
          <mxGeometry relative="1" as="geometry" />
        </mxCell>
        <mxCell id="s5xSqlg0MC3EOBNhK-53-3" value="" style="ellipse;html=1;shape=startState;fillColor=#000000;strokeColor=#ff0000;" vertex="1" parent="1">
          <mxGeometry x="384" y="640" width="30" height="30" as="geometry" />
        </mxCell>
        <mxCell id="s5xSqlg0MC3EOBNhK-53-4" value="" style="edgeStyle=orthogonalEdgeStyle;rounded=0;orthogonalLoop=1;jettySize=auto;html=1;" edge="1" parent="1" source="s5xSqlg0MC3EOBNhK-53-5" target="s5xSqlg0MC3EOBNhK-53-7">
          <mxGeometry relative="1" as="geometry" />
        </mxCell>
        <mxCell id="s5xSqlg0MC3EOBNhK-53-5" value="User changes CRD" style="rounded=1;whiteSpace=wrap;html=1;" vertex="1" parent="1">
          <mxGeometry x="339" y="690" width="120" height="90" as="geometry" />
        </mxCell>
        <mxCell id="s5xSqlg0MC3EOBNhK-53-6" value="" style="edgeStyle=orthogonalEdgeStyle;rounded=0;orthogonalLoop=1;jettySize=auto;html=1;" edge="1" parent="1" source="s5xSqlg0MC3EOBNhK-53-7" target="s5xSqlg0MC3EOBNhK-53-10">
          <mxGeometry relative="1" as="geometry" />
        </mxCell>
        <mxCell id="s5xSqlg0MC3EOBNhK-53-7" value="Kubernetes Runtime Controller Invokes Reconsile Method" style="rounded=1;whiteSpace=wrap;html=1;" vertex="1" parent="1">
          <mxGeometry x="339" y="800" width="120" height="60" as="geometry" />
        </mxCell>
        <mxCell id="s5xSqlg0MC3EOBNhK-53-61" style="edgeStyle=orthogonalEdgeStyle;rounded=0;orthogonalLoop=1;jettySize=auto;html=1;entryX=0.5;entryY=0;entryDx=0;entryDy=0;" edge="1" parent="1" source="s5xSqlg0MC3EOBNhK-53-10" target="s5xSqlg0MC3EOBNhK-53-15">
          <mxGeometry relative="1" as="geometry">
            <Array as="points">
              <mxPoint x="399" y="1010" />
              <mxPoint x="519" y="1010" />
            </Array>
          </mxGeometry>
        </mxCell>
        <mxCell id="s5xSqlg0MC3EOBNhK-53-62" value="&lt;font style=&quot;font-size: 13px;&quot;&gt;Deletion&lt;/font&gt;" style="edgeLabel;html=1;align=center;verticalAlign=middle;resizable=0;points=[];" connectable="0" vertex="1" parent="s5xSqlg0MC3EOBNhK-53-61">
          <mxGeometry x="-0.1567" relative="1" as="geometry">
            <mxPoint as="offset" />
          </mxGeometry>
        </mxCell>
        <mxCell id="s5xSqlg0MC3EOBNhK-53-10" value="What operation was performed with CRD" style="rhombus;whiteSpace=wrap;html=1;" vertex="1" parent="1">
          <mxGeometry x="316" y="880" width="166" height="110" as="geometry" />
        </mxCell>
        <mxCell id="s5xSqlg0MC3EOBNhK-53-38" style="edgeStyle=orthogonalEdgeStyle;rounded=0;orthogonalLoop=1;jettySize=auto;html=1;endArrow=none;endFill=0;startArrow=classic;startFill=1;entryX=0.5;entryY=1;entryDx=0;entryDy=0;exitX=1;exitY=0.5;exitDx=0;exitDy=0;" edge="1" parent="1" source="s5xSqlg0MC3EOBNhK-53-42" target="s5xSqlg0MC3EOBNhK-53-10">
          <mxGeometry relative="1" as="geometry">
            <mxPoint x="400" y="1010" as="targetPoint" />
            <mxPoint x="220" y="710" as="sourcePoint" />
            <Array as="points">
              <mxPoint x="246" y="735" />
              <mxPoint x="246" y="1010" />
              <mxPoint x="399" y="1010" />
            </Array>
          </mxGeometry>
        </mxCell>
        <mxCell id="s5xSqlg0MC3EOBNhK-53-63" value="&lt;span style=&quot;text-wrap: wrap; background-color: rgb(251, 251, 251);&quot;&gt;&lt;font style=&quot;font-size: 14px;&quot;&gt;Creation or update&lt;/font&gt;&lt;/span&gt;" style="edgeLabel;html=1;align=center;verticalAlign=middle;resizable=0;points=[];" connectable="0" vertex="1" parent="s5xSqlg0MC3EOBNhK-53-38">
          <mxGeometry x="0.4394" y="-1" relative="1" as="geometry">
            <mxPoint x="29" as="offset" />
          </mxGeometry>
        </mxCell>
        <mxCell id="s5xSqlg0MC3EOBNhK-53-14" value="" style="edgeStyle=orthogonalEdgeStyle;rounded=0;orthogonalLoop=1;jettySize=auto;html=1;entryX=0.5;entryY=0;entryDx=0;entryDy=0;" edge="1" parent="1" source="s5xSqlg0MC3EOBNhK-53-15" target="s5xSqlg0MC3EOBNhK-53-16">
          <mxGeometry relative="1" as="geometry">
            <mxPoint x="519" y="1160" as="targetPoint" />
          </mxGeometry>
        </mxCell>
        <mxCell id="s5xSqlg0MC3EOBNhK-53-15" value="Removing these deployments from autoscaler and load balancer" style="rounded=1;whiteSpace=wrap;html=1;" vertex="1" parent="1">
          <mxGeometry x="459" y="1138" width="120" height="60" as="geometry" />
        </mxCell>
        <mxCell id="s5xSqlg0MC3EOBNhK-53-16" value="" style="ellipse;html=1;shape=endState;fillColor=#000000;strokeColor=#ff0000;" vertex="1" parent="1">
          <mxGeometry x="504" y="1240" width="30" height="30" as="geometry" />
        </mxCell>
        <mxCell id="s5xSqlg0MC3EOBNhK-53-45" value="" style="edgeStyle=orthogonalEdgeStyle;rounded=0;orthogonalLoop=1;jettySize=auto;html=1;entryX=0.5;entryY=0;entryDx=0;entryDy=0;" edge="1" parent="1" source="s5xSqlg0MC3EOBNhK-53-42" target="s5xSqlg0MC3EOBNhK-53-48">
          <mxGeometry relative="1" as="geometry">
            <mxPoint x="-100" y="745" as="targetPoint" />
          </mxGeometry>
        </mxCell>
        <mxCell id="s5xSqlg0MC3EOBNhK-53-65" value="&lt;font style=&quot;font-size: 14px;&quot;&gt;Yes&lt;/font&gt;" style="edgeLabel;html=1;align=center;verticalAlign=middle;resizable=0;points=[];" connectable="0" vertex="1" parent="s5xSqlg0MC3EOBNhK-53-45">
          <mxGeometry x="-0.4696" y="-1" relative="1" as="geometry">
            <mxPoint as="offset" />
          </mxGeometry>
        </mxCell>
        <mxCell id="s5xSqlg0MC3EOBNhK-53-47" value="" style="edgeStyle=orthogonalEdgeStyle;rounded=0;orthogonalLoop=1;jettySize=auto;html=1;entryX=0.5;entryY=0;entryDx=0;entryDy=0;" edge="1" parent="1" source="s5xSqlg0MC3EOBNhK-53-42" target="s5xSqlg0MC3EOBNhK-53-50">
          <mxGeometry relative="1" as="geometry">
            <mxPoint x="93" y="805" as="targetPoint" />
          </mxGeometry>
        </mxCell>
        <mxCell id="s5xSqlg0MC3EOBNhK-53-64" value="&lt;font style=&quot;font-size: 14px;&quot;&gt;No&lt;/font&gt;" style="edgeLabel;html=1;align=center;verticalAlign=middle;resizable=0;points=[];" connectable="0" vertex="1" parent="s5xSqlg0MC3EOBNhK-53-47">
          <mxGeometry x="-0.216" y="-1" relative="1" as="geometry">
            <mxPoint as="offset" />
          </mxGeometry>
        </mxCell>
        <mxCell id="s5xSqlg0MC3EOBNhK-53-42" value="Balancing algorithm have been changed or created" style="rhombus;whiteSpace=wrap;html=1;" vertex="1" parent="1">
          <mxGeometry x="13" y="670" width="160" height="130" as="geometry" />
        </mxCell>
        <mxCell id="s5xSqlg0MC3EOBNhK-53-52" style="edgeStyle=orthogonalEdgeStyle;rounded=0;orthogonalLoop=1;jettySize=auto;html=1;entryX=0.417;entryY=0.045;entryDx=0;entryDy=0;exitX=0.5;exitY=1;exitDx=0;exitDy=0;entryPerimeter=0;" edge="1" parent="1" source="s5xSqlg0MC3EOBNhK-53-48" target="s5xSqlg0MC3EOBNhK-53-50">
          <mxGeometry relative="1" as="geometry" />
        </mxCell>
        <mxCell id="s5xSqlg0MC3EOBNhK-53-48" value="Set load balancing&lt;div&gt;algorithm to load balancer&lt;/div&gt;" style="rounded=1;whiteSpace=wrap;html=1;" vertex="1" parent="1">
          <mxGeometry x="-160" y="845" width="120" height="60" as="geometry" />
        </mxCell>
        <mxCell id="s5xSqlg0MC3EOBNhK-53-54" value="" style="edgeStyle=orthogonalEdgeStyle;rounded=0;orthogonalLoop=1;jettySize=auto;html=1;entryX=0;entryY=0;entryDx=0;entryDy=0;exitX=0.5;exitY=1;exitDx=0;exitDy=0;" edge="1" parent="1" source="s5xSqlg0MC3EOBNhK-53-50" target="s5xSqlg0MC3EOBNhK-53-16">
          <mxGeometry relative="1" as="geometry">
            <mxPoint x="93" y="1043" as="targetPoint" />
            <Array as="points">
              <mxPoint x="93" y="1244" />
              <mxPoint x="504" y="1244" />
            </Array>
          </mxGeometry>
        </mxCell>
        <mxCell id="s5xSqlg0MC3EOBNhK-53-67" value="&lt;font style=&quot;font-size: 14px;&quot;&gt;No&lt;/font&gt;" style="edgeLabel;html=1;align=center;verticalAlign=middle;resizable=0;points=[];" connectable="0" vertex="1" parent="s5xSqlg0MC3EOBNhK-53-54">
          <mxGeometry x="-0.7655" relative="1" as="geometry">
            <mxPoint as="offset" />
          </mxGeometry>
        </mxCell>
        <mxCell id="s5xSqlg0MC3EOBNhK-53-56" value="" style="edgeStyle=orthogonalEdgeStyle;rounded=0;orthogonalLoop=1;jettySize=auto;html=1;entryX=0.5;entryY=0;entryDx=0;entryDy=0;" edge="1" parent="1" source="s5xSqlg0MC3EOBNhK-53-50" target="s5xSqlg0MC3EOBNhK-53-57">
          <mxGeometry relative="1" as="geometry">
            <mxPoint x="-60" y="1080" as="targetPoint" />
          </mxGeometry>
        </mxCell>
        <mxCell id="s5xSqlg0MC3EOBNhK-53-66" value="&lt;font style=&quot;font-size: 14px;&quot;&gt;Yes&lt;/font&gt;" style="edgeLabel;html=1;align=center;verticalAlign=middle;resizable=0;points=[];" connectable="0" vertex="1" parent="s5xSqlg0MC3EOBNhK-53-56">
          <mxGeometry x="-0.4698" y="1" relative="1" as="geometry">
            <mxPoint as="offset" />
          </mxGeometry>
        </mxCell>
        <mxCell id="s5xSqlg0MC3EOBNhK-53-50" value="Scaling rules have been changed or created" style="rhombus;whiteSpace=wrap;html=1;" vertex="1" parent="1">
          <mxGeometry x="10" y="905" width="166" height="110" as="geometry" />
        </mxCell>
        <mxCell id="s5xSqlg0MC3EOBNhK-53-59" style="edgeStyle=orthogonalEdgeStyle;rounded=0;orthogonalLoop=1;jettySize=auto;html=1;entryX=0;entryY=0.5;entryDx=0;entryDy=0;exitX=0.5;exitY=1;exitDx=0;exitDy=0;" edge="1" parent="1" source="s5xSqlg0MC3EOBNhK-53-57" target="s5xSqlg0MC3EOBNhK-53-16">
          <mxGeometry relative="1" as="geometry" />
        </mxCell>
        <mxCell id="s5xSqlg0MC3EOBNhK-53-57" value="Set load scaling rules&lt;div&gt;to autoscaler&lt;/div&gt;" style="rounded=1;whiteSpace=wrap;html=1;" vertex="1" parent="1">
          <mxGeometry x="-140" y="1085" width="120" height="60" as="geometry" />
        </mxCell>
      </root>
    </mxGraphModel>
  </diagram>
</mxfile>
